# xmcd CD database file
#
# Track frame offsets:
#	150
#	38721
#	68156
#	99722
#	141110
#	168494
#	195373
#	229103
#	259774
#	279329
#
# Disc length: 4047 seconds
#
# Revision: 0
# Processed by: cddbd v1.5.2PL0 Copyright (c) Steve Scherf et al.
# Submitted via: CDex 1.81
#
DISCID=860fcd0a
DTITLE=Sebastian Noelle - Shelter
DYEAR=2016
DGENRE=Jazz
TTITLE0=Seven Up
TTITLE1=Home In A Strange Land
TTITLE2=Another Spring
TTITLE3=Rolling With The Punches
TTITLE4=Day Off
TTITLE5=Unlikely Heroes
TTITLE6=Mirror Lake
TTITLE7=Ahir Bhairav
TTITLE8=Naphta vs Settembrini
TTITLE9=You'll Never Know
EXTD=YEAR: 2016
EXTT0=
EXTT1=
EXTT2=
EXTT3=
EXTT4=
EXTT5=
EXTT6=
EXTT7=
EXTT8=
EXTT9=
PLAYORDER=
